<svg width="49" height="56" viewBox="0 0 49 56" fill="none" xmlns="http://www.w3.org/2000/svg">
<path d="M4.39862 49.9402L0 0.554688H48.335L43.932 49.9327L24.1382 55.4257L4.39862 49.9402Z" fill="#1572B6"/>
<path d="M24.1679 51.2273L40.1625 46.7885L43.9254 4.59247H24.1679V51.2273Z" fill="#33A9DC"/>
<path d="M24.1679 22.4849H32.175L32.728 16.2825H24.1679V10.2255H39.3413L39.196 11.8507L37.7085 28.5418H24.1679V22.4849Z" fill="white"/>
<path d="M24.2038 38.2152L24.1771 38.223L17.4383 36.4017L17.0073 31.5709H10.934L11.7814 41.0814L24.1762 44.5248L24.2038 44.5169V38.2152Z" fill="#EBEBEB"/>
<path d="M31.6605 28.2855L30.9317 36.3968L24.1828 38.2203V44.5221L36.5877 41.0809L36.6787 40.0574L37.7313 28.2855H31.6605Z" fill="white"/>
<path d="M24.1885 10.2255V16.2825H9.57251L9.45132 14.9214L9.1757 11.8507L9.03088 10.2255H24.1885ZM24.1679 22.4857V28.5427H17.514L17.3928 27.1816L17.1168 24.1109L16.9724 22.4857H24.1679Z" fill="#EBEBEB"/>
</svg>
