<svg width="49" height="56" viewBox="0 0 49 56" fill="none" xmlns="http://www.w3.org/2000/svg">
<path d="M4.37719 49.6957L0 0.553711H48.097L43.715 49.6883L24.0192 55.1536L4.37719 49.6957Z" fill="#E44D26"/>
<path d="M28.0485 51.9772L43.9639 47.5602L47.7085 5.57263H28.0485V51.9772Z" fill="#F16529"/>
<path d="M25.0485 23.7988H17.0808L16.5304 17.6267H25.0485V11.5999H9.94995L10.0943 13.2167L11.574 29.826H25.0485V23.7988ZM25.0485 39.4516L25.0218 39.4591L18.3163 37.6461L17.888 32.8398H11.843L12.6865 42.303L25.021 45.7302L25.0485 45.7228V39.4516Z" fill="#EBEBEB"/>
<path d="M25.0275 23.7988V29.826H32.4418L31.7432 37.6426L25.0275 39.4569V45.7276L37.3716 42.303L37.4622 41.2848L38.877 25.4174L39.0236 23.7988H37.4013H25.0275ZM25.0275 11.5999V17.6267H39.5718L39.6925 16.2726L39.9673 13.2167L40.1112 11.5999H25.0275Z" fill="white"/>
</svg>
