<svg width="56" height="57" viewBox="0 0 56 57" fill="none" xmlns="http://www.w3.org/2000/svg">
<path d="M0 0.551758H56V56.6064H0V0.551758Z" fill="#F7DF1E"/>
<path d="M12.7245 46.3942L17.0098 43.7981C17.8367 45.2654 18.5888 46.5069 20.3928 46.5069C22.122 46.5069 23.2125 45.8299 23.2125 43.1962V25.2854H28.475V43.2707C28.475 48.7266 25.2799 51.2101 20.6183 51.2101C16.4085 51.2101 13.9648 49.0276 12.7243 46.3937M31.3334 45.8297L35.6182 43.3464C36.7463 45.1903 38.2124 46.5448 40.8059 46.5448C42.9866 46.5448 44.377 45.4535 44.377 43.9483C44.377 42.1423 42.9486 41.5025 40.5427 40.4493L39.2274 39.8844C35.4306 38.2669 32.9121 36.2349 32.9121 31.9454C32.9121 27.9944 35.9192 24.9841 40.6182 24.9841C43.9638 24.9841 46.3696 26.1508 48.0986 29.1985L44.001 31.8327C43.0986 30.2147 42.1217 29.5751 40.618 29.5751C39.0767 29.5751 38.0993 30.5535 38.0993 31.8327C38.0993 33.4129 39.0767 34.0529 41.332 35.0313L42.6476 35.5955C47.121 37.5148 49.6395 39.4712 49.6395 43.8732C49.6395 48.6147 45.9181 51.2107 40.9186 51.2107C36.0319 51.2107 32.8742 48.8779 31.3331 45.8299" fill="black"/>
</svg>
