<svg width="63" height="57" viewBox="0 0 63 57" fill="none" xmlns="http://www.w3.org/2000/svg">
<path d="M51.6976 18.7026C51.0284 18.4728 50.3536 18.2599 49.6737 18.0641C49.7879 17.597 49.8931 17.1355 49.9864 16.6822C51.5185 9.23748 50.5169 3.23987 47.0958 1.26518C43.8156 -0.627899 38.4511 1.34606 33.0334 6.06572C32.4994 6.53169 31.9773 7.0111 31.4676 7.50347C31.1263 7.17606 30.7791 6.855 30.4259 6.54046C24.7478 1.49407 19.0565 -0.632816 15.639 1.34754C12.3618 3.24651 11.3913 8.88468 12.7707 15.9402C12.9079 16.639 13.0629 17.3341 13.2354 18.025C12.4298 18.2542 11.6524 18.4981 10.9085 18.7577C4.25133 21.081 0 24.7218 0 28.4984C0 32.3989 4.564 36.3112 11.4977 38.6834C12.0598 38.8749 12.6266 39.0524 13.1976 39.2157C13.0121 39.9598 12.8475 40.709 12.7039 41.4623C11.3889 48.3954 12.4158 53.9003 15.6842 55.7872C19.0599 57.7358 24.7257 55.7331 30.2425 50.9058C30.6898 50.5133 31.1273 50.1098 31.5545 49.6954C32.1066 50.2286 32.6733 50.7462 33.2542 51.2478C38.5982 55.8506 43.876 57.7093 47.1412 55.8172C50.5137 53.8629 51.6099 47.9491 50.1868 40.7542C50.0747 40.1906 49.949 39.6297 49.8098 39.0721C50.2077 38.9541 50.5982 38.8326 50.9789 38.7063C58.1872 36.3158 62.8772 32.451 62.8772 28.4984C62.8772 24.7081 58.4886 21.0426 51.6976 18.7026ZM50.1342 36.1543C49.7904 36.2681 49.4377 36.378 49.0781 36.485C48.2823 33.9633 47.2085 31.282 45.8942 28.5114C47.1483 25.807 48.1809 23.1599 48.9543 20.6547C49.5976 20.841 50.2217 21.0375 50.8234 21.2447C56.642 23.2499 60.1912 26.2142 60.1912 28.4984C60.1912 30.9314 56.3581 34.0899 50.1342 36.1543ZM47.5519 41.2764C48.1811 44.4578 48.2708 47.3343 47.854 49.5831C47.4796 51.6038 46.7266 52.9508 45.7952 53.4904C43.8139 54.6386 39.5763 53.1462 35.0061 49.2096C34.4659 48.7433 33.9387 48.2621 33.4251 47.7665C35.197 45.8269 36.9676 43.5722 38.6958 41.0679C41.7355 40.798 44.6072 40.3564 47.2114 39.7538C47.3369 40.2586 47.4504 40.7663 47.5519 41.2764ZM21.4362 53.292C19.5003 53.9762 17.9583 53.9959 17.0262 53.458C15.0429 52.313 14.2184 47.8928 15.343 41.9638C15.4767 41.2632 15.6298 40.5664 15.8021 39.8743C18.3776 40.4447 21.2284 40.8548 24.2753 41.1021C26.0152 43.5525 27.8369 45.8048 29.6729 47.777C29.2827 48.155 28.8833 48.5232 28.475 48.8814C26.0353 51.0159 23.5907 52.5304 21.4362 53.292ZM12.3667 36.1393C9.30067 35.0902 6.76863 33.727 5.03312 32.2393C3.47347 30.9026 2.68628 29.5753 2.68628 28.4984C2.68628 26.2066 6.09958 23.2834 11.7927 21.2966C12.4836 21.0557 13.2067 20.8283 13.957 20.6149C14.744 23.1767 15.776 25.8552 17.0215 28.5638C15.7598 31.3125 14.713 34.0338 13.9185 36.6259C13.3973 36.4764 12.8799 36.3142 12.3667 36.1393ZM15.4069 15.4237C14.2252 9.37885 15.01 4.81899 16.9849 3.67454C19.0884 2.4556 23.7398 4.19354 28.6425 8.55106C28.9622 8.83585 29.2767 9.12641 29.5859 9.42261C27.7591 11.3862 25.954 13.6218 24.2296 16.0577C21.2724 16.3321 18.4417 16.7727 15.8392 17.363C15.6788 16.7203 15.5347 16.0735 15.4069 15.4237ZM42.5293 22.1276C41.9146 21.0648 41.2771 20.0153 40.6172 18.9799C42.6234 19.2339 44.5455 19.571 46.3506 19.983C45.8087 21.7217 45.1333 23.5393 44.3382 25.4029C43.7571 24.2992 43.154 23.2072 42.5293 22.1276ZM31.4688 11.3442C32.7077 12.6878 33.9485 14.1877 35.169 15.8153C32.6932 15.6983 30.2133 15.6978 27.7374 15.8138C28.9591 14.2013 30.2105 12.7033 31.4688 11.3442ZM20.3373 22.146C19.7204 23.2169 19.1286 24.3021 18.5623 25.4007C17.7802 23.5437 17.1109 21.7178 16.5645 19.9545C18.3584 19.5528 20.2715 19.2243 22.2649 18.975C21.5977 20.0167 20.955 21.0742 20.3373 22.146ZM22.3221 38.2131C20.2627 37.983 18.3208 37.6715 16.5274 37.2806C17.0825 35.4858 17.7665 33.621 18.5655 31.7243C19.134 32.8236 19.7283 33.9095 20.3479 34.9808C20.985 36.0823 21.6447 37.1611 22.3221 38.2131ZM31.543 45.8419C30.2697 44.4671 28.9999 42.946 27.7598 41.3101C28.9638 41.3573 30.1911 41.3814 31.4386 41.3814C32.7202 41.3814 33.9871 41.3526 35.2341 41.2971C34.0097 42.9625 32.7735 44.4858 31.543 45.8419ZM44.3635 31.6274C45.204 33.5451 45.9124 35.4 46.4748 37.164C44.6519 37.5805 42.6835 37.9158 40.6096 38.1649C41.2742 37.1103 41.9177 36.0426 42.5399 34.9624C43.1724 33.8644 43.7804 32.7525 44.3635 31.6274ZM40.2132 33.6191C39.2607 35.2752 38.2547 36.8999 37.1968 38.4907C35.2804 38.6265 33.3598 38.694 31.4386 38.693C29.4818 38.693 27.5785 38.632 25.7458 38.513C24.6602 36.926 23.635 35.2984 22.6724 33.6338C21.7143 31.978 20.8196 30.2864 19.9898 28.5626C20.8175 26.8384 21.7097 25.146 22.6645 23.4889L22.6643 23.4891C23.6187 21.8316 24.6357 20.211 25.7131 18.6308C27.5829 18.4892 29.5005 18.4155 31.4384 18.4155C33.3851 18.4155 35.3053 18.4899 37.1747 18.6325C38.2411 20.2104 39.2517 21.8254 40.2043 23.4746C41.1623 25.128 42.0663 26.8122 42.9149 28.5245C42.075 30.2542 41.1739 31.9535 40.2132 33.6191ZM45.7542 3.5944C47.8596 4.8099 48.6785 9.71149 47.3556 16.1393C47.2711 16.5494 47.1763 16.9671 47.0732 17.3907C44.4642 16.7879 41.6316 16.3397 38.6658 16.0612C36.9381 13.5984 35.1479 11.3594 33.3507 9.42113C33.8217 8.96667 34.3039 8.524 34.7969 8.09352C39.439 4.04996 43.7775 2.45339 45.7542 3.5944ZM31.4386 22.8782C34.5395 22.8782 37.0533 25.3945 37.0533 28.4984C37.0533 31.6023 34.5395 34.1186 31.4386 34.1186C28.3377 34.1186 25.8239 31.6023 25.8239 28.4984C25.8239 25.3945 28.3377 22.8782 31.4386 22.8782Z" fill="#00D8FF"/>
</svg>
