<svg width="56" height="56" viewBox="0 0 56 56" fill="none" xmlns="http://www.w3.org/2000/svg">
<path d="M45.6925 30.751C44.1537 30.753 42.6355 31.1049 41.2527 31.78C40.8198 31.0615 40.4855 30.2881 40.2587 29.4805C40.1285 28.8475 40.0984 28.1979 40.1695 27.5555C40.3191 26.8486 40.5131 26.1519 40.7505 25.4695C40.7417 25.3802 40.6437 24.9585 39.6585 24.9445C38.6732 24.9305 37.8245 25.1318 37.7335 25.3925C37.5624 25.8688 37.425 26.3565 37.3222 26.852C36.5068 28.8636 35.5031 30.7937 34.3245 32.6165C33.6641 31.534 33.3925 30.2587 33.5545 29.001C33.7041 28.2941 33.8981 27.5974 34.1355 26.915C34.1267 26.8258 34.0287 26.404 33.0435 26.39C32.0582 26.376 31.2095 26.5773 31.1185 26.838C31.0275 27.0988 30.912 27.713 30.7072 28.2975C30.5025 28.882 28.112 34.223 27.4855 35.6003C27.1635 36.3003 26.8852 36.8708 26.6892 37.2557C26.6799 37.2808 26.6682 37.3048 26.6542 37.3275L26.3865 37.8385V37.8473C26.2517 38.0888 26.1082 38.3127 26.0365 38.3127C25.9113 37.8128 25.9174 37.289 26.054 36.792C26.404 34.9388 27.2615 32.0582 27.2527 31.9585C27.2527 31.9042 27.4137 31.4038 26.698 31.1448C26.532 31.0658 26.3456 31.0402 26.1644 31.0715C25.9833 31.1028 25.8163 31.1896 25.6865 31.3197C25.6235 31.3197 25.5797 31.472 25.5797 31.472C25.5797 31.472 26.3585 28.2327 24.094 28.2327C23.2121 28.4101 22.3747 28.7621 21.6309 29.2679C20.887 29.7737 20.2519 30.4231 19.7627 31.178C19.1537 31.5088 17.857 32.2157 16.4692 32.977C15.9442 33.2728 15.3947 33.5685 14.8855 33.852C14.8505 33.817 14.8137 33.7715 14.7787 33.7365C12.0225 30.8 6.95624 28.728 7.17499 24.7992C7.25549 23.3677 7.74724 19.6087 16.9032 15.043C24.4387 11.3295 30.436 12.3585 31.4737 14.6405C32.9595 17.899 28.2607 23.9488 20.475 24.8255C19.6137 25.0002 18.7241 24.9792 17.872 24.7638C17.0199 24.5484 16.2271 24.1443 15.5522 23.5813C15.141 23.1333 15.078 23.107 14.9257 23.1962C14.6755 23.331 14.8365 23.7335 14.9257 23.9662C15.2228 24.5038 15.6245 24.9763 16.1072 25.3559C16.5899 25.7355 17.1439 26.0146 17.7362 26.1765C20.7991 26.8384 23.9926 26.5219 26.866 25.2718C31.591 23.4465 35.266 18.3715 34.188 14.1208C33.1047 9.807 25.9455 8.38425 19.1695 10.7958C14.9253 12.2239 11.0037 14.4734 7.62824 17.416C3.89549 20.9072 3.30574 23.94 3.54724 25.2122C4.42224 29.7237 10.6365 32.6585 13.1232 34.8372C13.0109 34.9011 12.8977 34.9636 12.7837 35.0245C11.5395 35.6423 6.79699 38.122 5.60874 40.7435C4.26649 43.7185 5.82399 45.8447 6.85299 46.1318C8.4035 46.5029 10.0312 46.3806 11.5089 45.782C12.9866 45.1834 14.2404 44.1384 15.0955 42.7927C15.8236 41.6766 16.2712 40.4011 16.4 39.0747C16.5289 37.7483 16.3353 36.4104 15.8357 35.175C15.8273 35.155 15.8155 35.1367 15.8007 35.1208L16.7755 34.5485C17.3678 34.1984 17.9676 33.8611 18.5745 33.537C18.2102 34.5878 17.9963 35.6848 17.9392 36.7955C17.8155 38.4978 18.3365 40.1845 19.3987 41.5205C19.5604 41.6596 19.748 41.7653 19.9508 41.8314C20.1535 41.8975 20.3674 41.9227 20.58 41.9055C21.63 41.9055 22.1112 41.0305 22.638 39.991C23.282 38.7205 23.863 37.2435 23.863 37.2435C23.863 37.2435 23.1385 41.2353 25.1072 41.2353C25.823 41.2353 26.5475 40.3043 26.8712 39.8353V39.844L26.9255 39.7547L27.041 39.5675V39.55C27.328 39.0495 27.972 37.912 28.9292 36.0237C30.1647 33.5895 31.3547 30.5462 31.3547 30.5462C31.4695 31.2151 31.6279 31.8756 31.829 32.5237C32.1172 33.3094 32.4581 34.0747 32.8492 34.8145C32.5622 35.217 32.3837 35.441 32.3837 35.441L32.3925 35.4498C32.1597 35.7542 31.9095 36.085 31.6312 36.407C30.8034 37.3172 30.0353 38.2799 29.3317 39.2893C29.2272 39.4588 29.1913 39.6618 29.2313 39.8569C29.2713 40.052 29.3842 40.2245 29.547 40.3393C29.9154 40.5309 30.3353 40.6002 30.7457 40.537C31.3643 40.5021 31.9725 40.363 32.5447 40.1258C33.0978 39.9311 33.6195 39.657 34.0935 39.312C34.5821 38.9735 34.9755 38.5149 35.2357 37.9804C35.4959 37.4459 35.6142 36.8534 35.5792 36.26C35.5242 35.5125 35.3333 34.7812 35.0157 34.1022C35.105 33.9762 35.1907 33.852 35.2747 33.726C36.2697 32.2409 37.1664 30.6924 37.9592 29.0902C38.074 29.7591 38.2324 30.4196 38.4335 31.0678C38.6712 31.7467 38.9639 32.4051 39.3085 33.0365C38.1639 33.9171 37.2623 35.0746 36.6887 36.4C36.1252 38.0292 36.5627 38.7625 37.3887 38.9323C37.8407 38.9634 38.2926 38.8708 38.696 38.6645C39.289 38.4696 39.8477 38.1826 40.3515 37.814C40.8827 37.5005 41.3276 37.0598 41.6463 36.5317C41.9649 36.0035 42.1472 35.4044 42.1767 34.7882C42.137 34.1732 41.9981 33.5687 41.7655 32.998C43.2759 32.4079 44.9136 32.2198 46.5185 32.452C50.778 32.9525 51.6197 35.6108 51.4587 36.7308C51.3832 37.1278 51.2236 37.5041 50.9906 37.8343C50.7575 38.1645 50.4565 38.441 50.1077 38.6453C49.812 38.8325 49.714 38.8955 49.7402 39.0303C49.7752 39.228 49.9152 39.2175 50.169 39.1825C50.811 38.983 51.3774 38.5935 51.7935 38.0655C52.2097 37.5376 52.456 36.8958 52.5 36.225C52.6347 33.6 50.1287 30.7213 45.6977 30.7475L45.6925 30.751ZM12.8275 41.825C11.4135 43.365 9.44474 43.946 8.59424 43.4543C7.68074 42.9292 8.03949 40.6542 9.77549 39.0233C10.8053 38.0963 11.9183 37.2662 13.1005 36.5435C13.307 36.4175 13.6115 36.239 13.9755 36.0185L14.0735 35.9643L14.2887 35.8295C14.5989 36.8686 14.627 37.9716 14.3702 39.0252C14.1134 40.0788 13.581 41.0451 12.8275 41.825ZM23.1192 34.825C22.6275 36.0238 21.5985 39.095 20.972 38.9235C20.4347 38.78 20.097 36.4525 20.8652 34.153C21.2531 33.046 21.8181 32.0094 22.5382 31.0835C23.3082 30.2242 24.1587 29.9372 24.3635 30.2872C24.1767 31.8533 23.7573 33.3827 23.1192 34.825ZM31.612 38.8885C31.4055 38.9953 31.2095 39.0635 31.1202 39.0145C31.0572 38.9795 31.2095 38.8395 31.2095 38.8395C31.2095 38.8395 32.2752 37.6933 32.6952 37.1753C32.9367 36.8708 33.2202 36.5138 33.5282 36.1095V36.225C33.5282 37.5935 32.2035 38.5158 31.6137 38.892L31.612 38.8885ZM38.164 37.394C38.0117 37.2873 38.038 36.9285 38.549 35.8102C38.9043 35.0921 39.4007 34.4528 40.0085 33.9307C40.1017 34.1957 40.1502 34.4742 40.152 34.755C40.1589 35.3527 39.9678 35.9359 39.6085 36.4136C39.2492 36.8912 38.7419 37.2366 38.1657 37.3958L38.164 37.394Z" fill="#CD6799"/>
</svg>
