<svg width="56" height="35" viewBox="0 0 56 35" fill="none" xmlns="http://www.w3.org/2000/svg">
<path d="M28 0.561523C20.5332 0.561523 15.8681 4.29704 14 11.7711C16.7991 8.03519 20.0668 6.63426 23.7991 7.56836C25.9302 8.1 27.4531 9.64676 29.1397 11.3608C31.8846 14.1491 35.0617 17.3771 42 17.3771C49.4664 17.3771 54.1319 13.6411 56 6.16524C53.2004 9.90339 49.9332 11.3043 46.2004 10.3702C44.0698 9.83814 42.5486 8.29182 40.8599 6.57777C38.1168 3.78949 34.9405 0.561523 28 0.561523ZM14 17.3771C6.53363 17.3771 1.86812 21.113 0 28.5889C2.79912 24.8507 6.06638 23.4498 9.79913 24.3839C11.9302 24.916 13.4531 26.4623 15.1397 28.1763C17.8846 30.9646 21.0617 34.1926 28 34.1926C35.4664 34.1926 40.1319 30.4571 42 22.983C39.2004 26.7189 35.9332 28.1198 32.2004 27.1857C30.0698 26.6541 28.5486 25.1073 26.8599 23.3933C24.1167 20.605 20.9405 17.3771 14 17.3771Z" fill="#38BDF8"/>
</svg>
