<svg
            
                width="43"
                height="51"
                viewBox="0 0 43 51"
                fill="none"
                xmlns="http://www.w3.org/2000/svg"
              >
                <path
                  fill-rule="evenodd"
                  clip-rule="evenodd"
                  d="M36.7208 6.48098C34.4856 4.06944 31.2982 3.18257 28.1791 4.11832C27.9679 4.1899 27.7452 4.21588 27.5244 4.19471C27.3035 4.17355 27.0889 4.10567 26.8934 3.99512C26.6979 3.88458 26.5254 3.73362 26.3863 3.55123C26.2472 3.36885 26.1442 3.15878 26.0836 2.93351C26.0229 2.70824 26.0058 2.47239 26.0333 2.23999C26.0607 2.0076 26.1321 1.78341 26.2433 1.58077C26.3545 1.37814 26.5032 1.2012 26.6805 1.06049C26.8578 0.919778 27.06 0.818173 27.2753 0.761723C31.545 -0.52319 35.9912 0.703529 39.0838 4.03685C39.3907 4.36775 39.5606 4.81386 39.5561 5.27702C39.5515 5.74019 39.3729 6.18247 39.0596 6.50658C38.7462 6.8307 38.3238 7.01008 37.8851 7.00528C37.4465 7.00048 37.0277 6.81188 36.7208 6.48098ZM19.7123 5.05175C19.2405 4.19747 17.865 3.67838 16.4697 4.52335C15.0766 5.36134 14.8319 6.84411 15.297 7.68209L20.8629 17.7659C20.9817 17.9641 21.0614 18.1856 21.0973 18.4171C21.1332 18.6486 21.1245 18.8854 21.0718 19.1133C21.0192 19.3411 20.9235 19.5555 20.7906 19.7435C20.6578 19.9315 20.4904 20.0892 20.2985 20.2074C20.1065 20.3255 19.894 20.4016 19.6737 20.4311C19.4533 20.4606 19.2295 20.4429 19.0158 20.3791C18.802 20.3152 18.6026 20.2065 18.4295 20.0595C18.2564 19.9125 18.1132 19.7301 18.0083 19.5233L12.438 9.44186L10.5842 6.08061C10.1125 5.22633 8.73697 4.70724 7.34164 5.55221C5.94851 6.3902 5.70383 7.87297 6.16673 8.71095L14.5189 23.8343C14.6283 24.0324 14.6997 24.2513 14.729 24.4785C14.7583 24.7057 14.745 24.9368 14.6897 25.1586C14.6344 25.3803 14.5384 25.5884 14.4069 25.771C14.2755 25.9536 14.1113 26.107 13.9237 26.2225C13.7361 26.3381 13.5289 26.4135 13.3137 26.4444C13.0985 26.4754 12.8797 26.4613 12.6697 26.4029C12.4596 26.3446 12.2626 26.2431 12.0897 26.1043C11.9168 25.9655 11.7715 25.7921 11.6621 25.5941L7.95003 18.8715C7.4783 18.0173 6.10501 17.4982 4.70748 18.3431C3.31655 19.1811 3.06967 20.6616 3.53478 21.5019L11.8847 36.6252C15.4337 43.0474 24.1848 45.1308 31.6068 40.6522C39.0221 36.176 41.6585 27.2351 38.1205 20.8268L32.5524 10.7454C32.0807 9.89112 30.7052 9.37203 29.3099 10.2147C27.9167 11.055 27.6743 12.5354 28.1372 13.3757L31.8492 20.0959C31.9596 20.2952 32.0313 20.5156 32.0605 20.7444C32.0896 20.9732 32.0754 21.2058 32.0188 21.4288C31.9623 21.6518 31.8644 21.8607 31.7308 22.0434C31.5973 22.2262 31.4307 22.3792 31.2408 22.4935C27.8396 24.5419 26.7991 28.5107 28.2871 31.2062C28.3965 31.4043 28.4679 31.6232 28.4972 31.8504C28.5265 32.0777 28.5131 32.3088 28.4579 32.5305C28.4026 32.7523 28.3065 32.9604 28.1751 33.143C28.0437 33.3255 27.8795 33.4789 27.6919 33.5945C27.5043 33.71 27.297 33.7854 27.0818 33.8164C26.8667 33.8473 26.6478 33.8332 26.4378 33.7749C26.2278 33.7165 26.0307 33.615 25.8579 33.4763C25.685 33.3375 25.5397 33.1641 25.4303 32.966C23.0937 28.7365 24.5662 23.5084 28.2143 20.4497L19.7123 5.05175ZM25.7301 9.01356L22.5713 3.29663C20.993 0.438166 17.4506 -0.0879026 14.8319 1.49496C14.0354 1.97489 13.3484 2.63363 12.8194 3.42466C11.0559 1.37392 8.01836 1.12485 5.70162 2.52149C3.07848 4.10668 1.72724 7.60062 3.31435 10.4731L5.52307 14.4744C4.65954 14.5733 3.82447 14.8586 3.06967 15.3124C0.444325 16.8953 -0.906922 20.3916 0.680186 23.264L9.03235 38.3873C13.6835 46.8137 24.6036 48.904 33.249 43.6852C41.8987 38.4665 45.6395 27.5098 40.9795 19.0694L35.407 8.99028C33.8287 6.13182 30.2864 5.60575 27.6676 7.18628C26.8961 7.65183 26.2348 8.28265 25.7256 9.01356H25.7301ZM4.77581 38.925C4.96337 38.8094 5.17067 38.734 5.38586 38.703C5.60105 38.672 5.81991 38.6861 6.02993 38.7445C6.23996 38.8028 6.43704 38.9043 6.60991 39.0431C6.78278 39.1819 6.92806 39.3554 7.03744 39.5535C8.86041 42.8542 11.6445 45.3496 15.0832 46.9697C15.4837 47.1586 15.7967 47.5078 15.9533 47.9404C16.11 48.373 16.0975 48.8536 15.9186 49.2765C15.7397 49.6994 15.4091 50.0299 14.9994 50.1953C14.5898 50.3608 14.1346 50.3476 13.7342 50.1587C9.74214 48.2755 6.39157 45.317 4.18064 41.3133C4.07117 41.1152 3.99972 40.8963 3.97038 40.6691C3.94104 40.4418 3.95439 40.2107 4.00966 39.9889C4.06493 39.7671 4.16104 39.559 4.2925 39.3765C4.42396 39.1939 4.58819 39.0405 4.77581 38.925Z"
                  fill="#D27C2C"
                />
              </svg>